<?xml version="1.0" encoding="iso-8859-1"?>
<!-- Generator: Adobe Illustrator 18.0.0, SVG Export Plug-In . SVG Version: 6.00 Build 0)  -->
<!DOCTYPE svg PUBLIC "-//W3C//DTD SVG 1.1//EN" "http://www.w3.org/Graphics/SVG/1.1/DTD/svg11.dtd">
<svg version="1.1" id="Capa_1" xmlns="http://www.w3.org/2000/svg" xmlns:xlink="http://www.w3.org/1999/xlink" x="0px" y="0px"
	 viewBox="0 0 271.629 271.629" style="enable-background:new 0 0 271.629 271.629;" xml:space="preserve">
<g>
	<path d="M242.699,158.907c-15.329,8.061-30.842,15.734-46.576,22.975c-2.066,0.951-0.852,3.878,1.078,3.981
		c4.326,0.231,8.629,0.398,12.955,0.402c-8.631,10.24-16.825,19.581-28.333,26.82c-11.026,6.935-23.007,10.271-35.365,13.689
		c2.691-38.433,3.271-77.247,3.434-115.82c4.253,0.861,8.825,0.718,13.097,0.868c6.44,0.227,13.14,1.043,19.549,0.434
		c0.404-0.038,0.738-0.223,0.996-0.471c4.815,5.335,13.108,7.395,17.585-0.923c3.629-6.74,2.388-16.052-4.651-20.024
		c-5.163-2.913-12.734-0.875-14.742,4.639c-10.326-1.251-21.373-0.24-31.793,0.378c0.025-9.734,0.047-19.477,0.077-29.156
		c9.824-3.401,17.913-10.585,19.626-21.439c2.806-17.773-7.036-40.48-25.708-44.375c-18.844-3.931-36.873,5.371-40.598,24.867
		c-2.673,13.99,3.095,33.297,17.363,38.353c-0.013,0.947,0.44,1.926,1.544,2.365c0.429,0.171,0.887,0.292,1.327,0.446
		c-0.285,9.594-0.265,19.257-0.146,28.939c-4.789-0.484-9.669-0.297-14.469-0.199c-3.944,0.08-8.108-0.169-11.903,0.946
		c-0.348-0.555-0.69-1.112-1.136-1.625c-4.241-4.864-12.416-6.562-17.32-1.708c-4.703,4.653-3.975,12.539-0.309,17.572
		c2.031,2.79,5.227,5.07,8.746,5.313c2.133,0.148,4.314-0.621,5.781-2.074c0.457,0.2,0.982,0.239,1.497-0.23
		c0.736-0.672,1.373-1.423,1.946-2.214c9.14,0.654,18.276,1.115,27.441,1.272c1.112,37.509,4.523,75.38,8.432,112.726
		c-29.915-2.305-53.632-17.976-71.311-41.588c0.093,0.008,0.165,0.048,0.267,0.045c3.882-0.146,7.766-0.294,11.649-0.435
		c1.549-0.056,2.869-2.27,1.413-3.41c-13.883-10.875-28.892-20.048-45.46-26.216c-0.378-0.141-0.704-0.058-0.977,0.121
		c-1.117-0.028-2.33,0.888-2.006,2.32c3.9,17.251,10.286,33.775,19.614,48.833c1.083,1.748,3.333,0.83,3.567-0.966
		c0.466-3.579,0.856-7.12,1.044-10.702c19.4,27.806,51.35,45.609,84.324,51.746c0.888,8.187,1.772,16.409,2.661,24.518
		c0.249,2.268,3.798,2.344,3.612,0c-5.296-67.093-6.671-135.327-14.239-202.144c6.178,1.596,13.09,1.604,19.567,0.112
		c-0.227,67.389-5.119,134.745-5.096,202.065c0,1.12,1.57,1.055,1.696,0c0.937-7.836,1.721-15.705,2.433-23.588
		c28.858-7.62,62.531-22.453,77.204-50.157c1.4,6.387,4.179,14.82,9.443,7.993c9.098-11.797,12.758-29,14.442-43.397
		C246.174,159.038,244.005,158.221,242.699,158.907z M93.871,109.02c-0.096,0.066-0.242,0.077-0.315,0.164
		c-0.616-0.469-1.434-0.558-2.095,0.228c-6.886,8.192-17.115-8.816-8.682-13.823c3.288-1.953,7.796-0.361,10.099,2.422
		C95.418,101.08,95.423,105.456,93.871,109.02z M132.514,229.41c0.426,4.038,0.872,8.012,1.306,12.037
		c-34.134-7.222-60.417-25.238-83.657-51.116c-0.411-0.457-1.009-0.386-1.424-0.074c-0.292,0.093-0.558,0.265-0.668,0.621
		c-0.807,2.596-1.402,5.215-1.945,7.85c-7.123-13.073-12.64-26.61-16.241-41.122c12.699,6.736,25.033,13.95,36.774,22.219
		c-1.86,0.05-3.72,0.101-5.581,0.151c-1.883,0.05-2.401,2.146-1.604,3.325c-0.745,0.069-1.4,0.738-0.913,1.62
		c14.828,26.798,43.74,42.331,73.732,44.568C132.392,229.496,132.425,229.415,132.514,229.41z M196.194,95.967
		c3.614,3.565,3.415,11.135-0.376,14.561c-3.864,3.49-8.956,0.112-10.8-3.876c-1.038-2.243-1.215-4.618-0.876-6.97
		c0.38-0.226,0.712-0.554,0.901-1.007C187.029,93.901,192.19,92.02,196.194,95.967z M180.568,99.349
		c-1.274,3.154-0.753,6.559,0.865,9.511c-5.58-1.135-11.48-1.048-17.14-1.149c-4.655-0.083-9.71-0.453-14.392,0.333
		c0.011-3.177,0.016-6.329,0.025-9.502C159.954,99.247,170.558,100.284,180.568,99.349z M97.877,108.662
		c1.261-3.045,1.468-6.432,0.39-9.543c3.085,0.703,6.364,0.582,9.555,0.742c5.152,0.26,10.497,0.67,15.658,0.213
		c0.048,2.881,0.054,5.755,0.126,8.641C115.025,108.457,106.457,108.479,97.877,108.662z M124.042,62.149
		c-11.245-7.3-18.022-18.107-16.629-32.146c1.757-17.694,16.496-27.405,33.682-24.465c16.357,2.798,24.215,19.921,23.861,35.5
		C164.499,61.144,140.021,67.219,124.042,62.149z M235.124,187.26c-0.268,0.687-4.928,13.483-6.304,13.542
		c-3.311,0.143-3.781-7.834-4.238-10.142c-0.405-2.043-3.135-1.35-3.294,0.473c-18.757,29.478-45.047,40.029-76.174,52.393
		c0.411-4.723,0.833-9.443,1.177-14.179c26.028-0.991,54.591-18.924,67.469-41.264c0.587-1.018,0.046-2.095-0.791-2.644
		c0.29-0.685,0.147-1.547-0.752-1.713c-2.507-0.462-5.014-0.849-7.526-1.195c12.252-5.714,24.383-11.668,36.371-17.921
		C239.899,172.364,237.979,179.916,235.124,187.26z"/>
</g>
<g>
</g>
<g>
</g>
<g>
</g>
<g>
</g>
<g>
</g>
<g>
</g>
<g>
</g>
<g>
</g>
<g>
</g>
<g>
</g>
<g>
</g>
<g>
</g>
<g>
</g>
<g>
</g>
<g>
</g>
</svg>
