<svg xmlns="http://www.w3.org/2000/svg" viewBox="0 0 223.9 160"><defs><style>.cls-1{fill:#e71e25;}</style></defs><g id="Layer_2" data-name="Layer 2"><g id="Layer_1-2" data-name="Layer 1"><path class="cls-1" d="M4.35,69a16.08,16.08,0,0,0,0,22c10.9,11.5,67.4,69,107.6,69s96.7-57.5,107.6-69a16.08,16.08,0,0,0,0-22C208.65,57.5,152.15,0,112,0S15.25,57.5,4.35,69ZM112,32.1c16.8,0,49.7,25.3,73.4,48-23.7,22.7-56.6,48-73.4,48s-49.7-25.3-73.4-48C62.25,57.4,95.15,32.1,112,32.1Z"/><path d="M136,80.1a24,24,0,1,0-24,24A24.07,24.07,0,0,0,136,80.1Z"/></g></g></svg>