<svg id="Capa_1" enable-background="new 0 0 512 512" height="512" viewBox="0 0 512 512" width="512" xmlns="http://www.w3.org/2000/svg"><g><g><path d="m286.789 142.092c-4.273 0-7.736-3.464-7.736-7.736v-53.455c0-4.272 3.463-7.736 7.736-7.736s7.736 3.464 7.736 7.736v53.455c0 4.273-3.463 7.736-7.736 7.736z" fill="#365e7d"/></g><path d="m405.655 453.815-19.365 20.63h-194.149l-21.445-20.63v-323.143c0-9.359 7.587-16.945 16.945-16.945h201.069c9.359 0 16.945 7.587 16.945 16.945z" fill="#f9efda"/><path d="m388.71 113.727h-21.786c9.359 0 16.945 7.587 16.945 16.945v323.143h21.786v-323.143c0-9.359-7.587-16.945-16.945-16.945z" fill="#ecd5c6"/><path d="m396.648 512h-216.945c-29.088 0-55.824-15.982-69.597-41.604l-5.958-11.084c-1.336-2.486.464-5.497 3.286-5.497h361.482c2.822 0 4.622 3.012 3.286 5.497l-5.958 11.084c-13.772 25.622-40.508 41.604-69.596 41.604z" fill="#365e7d"/><path d="m468.916 453.815h-31.315c2.822 0 4.622 3.012 3.286 5.498l-5.958 11.084c-13.772 25.621-40.508 41.603-69.596 41.603h31.315c29.088 0 55.824-15.982 69.597-41.604l5.958-11.084c1.336-2.485-.465-5.497-3.287-5.497z" fill="#2b4d66"/><g><path d="m162.905 475.993-11.06-1.937c-61.179-10.713-102.09-68.993-91.378-130.172l1.667-9.517c.149-.852.961-1.422 1.813-1.273l9.517 1.667c61.179 10.713 102.09 68.993 91.378 130.172z" fill="#da387d"/><g><path d="m163.168 475.993 11.06-1.937c61.179-10.713 102.09-68.993 91.378-130.172l-1.667-9.517c-.149-.852-.961-1.422-1.813-1.273l-9.517 1.667c-61.179 10.713-102.09 68.993-91.378 130.172z" fill="#da387d"/></g></g><path d="m163.036 511.995h-11.228c-62.11 0-112.46-50.35-112.46-112.46v-9.662c0-.865.701-1.566 1.566-1.566h9.662c62.11 0 112.46 50.35 112.46 112.46z" fill="#eaaadd"/><path d="m163.036 511.995v-11.228c0-62.11 50.35-112.46 112.46-112.46h9.662c.865 0 1.566.701 1.566 1.566v9.662c0 62.11-50.35 112.46-112.46 112.46z" fill="#eaaadd"/><path d="m163.036 511.995-9.664-9.664c-53.458-53.458-53.458-140.13 0-193.588l8.557-8.557c.612-.612 1.603-.612 2.215 0l8.557 8.557c53.458 53.458 53.458 140.13 0 193.588z" fill="#e490d0"/><path d="m172.701 502.331c53.458-53.458 53.458-140.13 0-193.588l-8.557-8.557c-.612-.612-1.603-.612-2.215 0l-8.557 8.557c-.854.854-1.693 1.717-2.52 2.587 50.097 52.761 50.097 135.653 0 188.414.826.871 1.666 1.733 2.52 2.587l9.664 9.664z" fill="#df73c1"/><path d="m301.589 85.102c-8.174 8.174-21.427 8.174-29.601 0-19.592-19.592-19.592-51.358 0-70.95l13.693-13.693c.612-.612 1.603-.612 2.215 0l13.693 13.693c19.592 19.592 19.592 51.358 0 70.95z" fill="#e49542"/><path d="m301.589 85.102c19.593-19.592 19.593-51.358 0-70.95l-13.693-13.693c-.612-.612-1.603-.612-2.215 0l-9.304 9.304 4.389 4.389c19.593 19.592 19.593 51.358 0 70.95-1.338 1.339-2.823 2.435-4.389 3.335 7.999 4.597 18.377 3.5 25.212-3.335z" fill="#e27d47"/><path d="m170.696 206.585c0 11.934 9.674 21.609 21.609 21.609 11.934 0 21.608-9.674 21.608-21.608v-42.629c0-9.953 8.068-18.021 18.021-18.021h.453c9.953 0 18.021 8.068 18.021 18.021v106.633c0 11.517 9.337 20.854 20.854 20.854 11.517 0 20.854-9.337 20.854-20.854v-68.968c0-9.953 8.068-18.021 18.021-18.021h2.007c9.953 0 18.021 8.068 18.021 18.021v4.022c0 10.101 8.266 18.679 18.365 18.49 9.794-.183 17.677-8.18 17.677-18.018v-92.39h-178.566c-9.359 0-16.945 7.587-16.945 16.945z" fill="#f4d8a5"/><g fill="#ffd064"><path d="m349.575 113.727v92.39c0 6.914-3.901 12.905-9.615 15.927 2.564 1.378 5.48 2.149 8.572 2.091 9.794-.183 17.677-8.18 17.677-18.018v-92.39z"/><path d="m215.753 145.934h-.453c-9.953 0-18.021 8.068-18.021 18.021v42.629c0 8.986-5.487 16.686-13.291 19.945 2.561 1.069 5.369 1.664 8.317 1.664 11.934 0 21.608-9.674 21.608-21.609v-42.629c0-7.04 4.046-13.121 9.93-16.087-2.435-1.227-5.177-1.934-8.09-1.934z"/><path d="m295.511 183.601h-2.008c-9.953 0-18.021 8.068-18.021 18.021v68.968c0 8.559-5.161 15.906-12.537 19.119 2.549 1.111 5.359 1.735 8.317 1.735 11.517 0 20.854-9.337 20.854-20.854v-68.968c0-7.347 4.403-13.655 10.708-16.461-2.236-.995-4.706-1.56-7.313-1.56z"/></g><path d="m350.607 310.937c-10.548 0-19.1-8.551-19.1-19.1v-17.708c0-10.548 8.551-19.1 19.1-19.1 10.548 0 19.1 8.551 19.1 19.1v17.708c-.001 10.549-8.552 19.1-19.1 19.1z" fill="#f4d8a5"/><path d="m350.607 255.03c-2.447 0-4.778.477-6.928 1.316 7.119 2.776 12.172 9.682 12.172 17.784v17.708c0 8.102-5.053 15.008-12.172 17.784 2.15.838 4.481 1.316 6.928 1.316 10.548 0 19.099-8.551 19.099-19.1v-17.708c0-10.549-8.551-19.1-19.099-19.1z" fill="#ffd064"/></g></svg>