<?xml version="1.0" encoding="iso-8859-1"?>
<!-- Generator: Adobe Illustrator 19.0.0, SVG Export Plug-In . SVG Version: 6.00 Build 0)  -->
<svg version="1.1" id="Capa_1" xmlns="http://www.w3.org/2000/svg" xmlns:xlink="http://www.w3.org/1999/xlink" x="0px" y="0px"
	 viewBox="0 0 512 512" style="enable-background:new 0 0 512 512;" xml:space="preserve">
<g>
	<g>
		<g>
			<path d="M59.583,117.333l-13.792,13.792c-3.052,3.052-3.969,7.635-2.313,11.625c1.646,3.99,5.542,6.583,9.854,6.583h85.333
				c5.896,0,10.667-4.771,10.667-10.667V53.333c0-4.313-2.594-8.208-6.583-9.854c-3.99-1.656-8.573-0.74-11.625,2.313
				l-13.792,13.792L60.875,3.125c-4.167-4.167-10.917-4.167-15.083,0L3.125,45.792c-4.167,4.167-4.167,10.917,0,15.083
				L59.583,117.333z"/>
			<path d="M373.333,149.333h85.333c4.313,0,8.208-2.594,9.854-6.583c1.656-3.99,0.74-8.573-2.313-11.625l-13.792-13.792
				l56.458-56.458c4.167-4.167,4.167-10.917,0-15.083L466.208,3.125c-4.167-4.167-10.917-4.167-15.083,0l-56.458,56.458
				l-13.792-13.792c-3.042-3.031-7.604-3.948-11.625-2.313c-3.99,1.646-6.583,5.542-6.583,9.854v85.333
				C362.667,144.563,367.438,149.333,373.333,149.333z"/>
			<path d="M138.667,362.667H53.333c-4.313,0-8.208,2.594-9.854,6.583c-1.656,3.99-0.74,8.573,2.313,11.625l13.792,13.792
				L3.125,451.125c-4.167,4.167-4.167,10.917,0,15.083l42.667,42.667c2.083,2.083,4.813,3.125,7.542,3.125
				c2.729,0,5.458-1.042,7.542-3.125l56.458-56.458l13.792,13.792c3.073,3.073,7.656,4.01,11.625,2.313
				c3.99-1.646,6.583-5.542,6.583-9.854v-85.333C149.333,367.438,144.563,362.667,138.667,362.667z"/>
			<path d="M452.417,394.667l13.792-13.792c3.052-3.052,3.969-7.635,2.313-11.625c-1.646-3.99-5.542-6.583-9.854-6.583h-85.333
				c-5.896,0-10.667,4.771-10.667,10.667v85.333c0,4.313,2.594,8.208,6.583,9.854c4,1.677,8.583,0.74,11.625-2.313l13.792-13.792
				l56.458,56.458c2.083,2.083,4.813,3.125,7.542,3.125s5.458-1.042,7.542-3.125l42.667-42.667c4.167-4.167,4.167-10.917,0-15.083
				L452.417,394.667z"/>
			<circle cx="256" cy="256" r="106.667"/>
		</g>
	</g>
</g>
<g>
</g>
<g>
</g>
<g>
</g>
<g>
</g>
<g>
</g>
<g>
</g>
<g>
</g>
<g>
</g>
<g>
</g>
<g>
</g>
<g>
</g>
<g>
</g>
<g>
</g>
<g>
</g>
<g>
</g>
</svg>
