<?xml version="1.0" encoding="utf-8"?>
<!-- Generator: Adobe Illustrator 25.2.3, SVG Export Plug-In . SVG Version: 6.00 Build 0)  -->
<svg version="1.1" id="Layer_1" xmlns="http://www.w3.org/2000/svg" xmlns:xlink="http://www.w3.org/1999/xlink" x="0px" y="0px"
	 viewBox="0 0 384 384" style="enable-background:new 0 0 384 384;" xml:space="preserve">
<style type="text/css">
	.st0{fill:#E71E25;}
	.st1{fill:#511017;}
</style>
<path class="st0" d="M84.4,212.9c-5.8,6.2-5.8,15.8,0,22c10.9,11.5,67.4,69,107.6,69s96.7-57.5,107.6-69c5.8-6.2,5.8-15.8,0-22
	c-10.9-11.5-67.4-69-107.6-69S95.3,201.4,84.4,212.9z M192,176c16.8,0,49.7,25.3,73.4,48c-23.7,22.7-56.6,48-73.4,48
	s-49.7-25.3-73.4-48C142.3,201.3,175.2,176,192,176z"/>
<path d="M216,224c0-13.2-10.8-24-24-24s-24,10.8-24,24s10.8,24,24,24S216,237.2,216,224z"/>
<path class="st1" d="M323.3,144.9L204.7,67.3c-7.7-4.9-17.7-4.9-25.5,0.1L60.7,144.9C54,149.3,50,156.7,50,164.7V324
	c0,13.1,10.6,23.7,23.7,23.7h236.7c13.1,0,23.7-10.6,23.7-23.7V164.7C334,156.7,330,149.3,323.3,144.9z M310.3,324H73.7V164.7
	l118.2-77.5l118.5,77.5V324H310.3z"/>
</svg>
